<?xml version="1.0" encoding="UTF-8" standalone="no"?>
<!-- Created with Inkscape (http://www.inkscape.org/) -->

<svg
   xmlns:dc="http://purl.org/dc/elements/1.1/"
   xmlns:cc="http://creativecommons.org/ns#"
   xmlns:rdf="http://www.w3.org/1999/02/22-rdf-syntax-ns#"
   xmlns:svg="http://www.w3.org/2000/svg"
   xmlns="http://www.w3.org/2000/svg"
   xmlns:sodipodi="http://sodipodi.sourceforge.net/DTD/sodipodi-0.dtd"
   xmlns:inkscape="http://www.inkscape.org/namespaces/inkscape"
   width="50"
   height="50"
   viewBox="0 0 13.229167 13.229167"
   version="1.1"
   id="svg8"
   inkscape:version="0.92.3 (2405546, 2018-03-11)"
   sodipodi:docname="logo.svg">
  <sodipodi:namedview
     id="base"
     pagecolor="#ffffff"
     bordercolor="#666666"
     borderopacity="1.0"
     inkscape:pageopacity="0"
     inkscape:pageshadow="2"
     inkscape:zoom="11.313709"
     inkscape:cx="27.964436"
     inkscape:cy="20.50193"
     inkscape:document-units="px"
     inkscape:current-layer="g4619"
     showgrid="false"
     inkscape:window-width="1920"
     inkscape:window-height="1017"
     inkscape:window-x="-8"
     inkscape:window-y="-8"
     inkscape:window-maximized="1"
     inkscape:pagecheckerboard="true"
     fit-margin-top="0"
     fit-margin-left="0"
     fit-margin-right="0"
     fit-margin-bottom="0"
     units="px" />
  <defs
     id="defs2" />
  <metadata
     id="metadata5">
    <rdf:RDF>
      <cc:Work
         rdf:about="">
        <dc:format>image/svg+xml</dc:format>
        <dc:type
           rdf:resource="http://purl.org/dc/dcmitype/StillImage" />
        <dc:title></dc:title>
      </cc:Work>
    </rdf:RDF>
  </metadata>
  <g
     id="layer1"
     inkscape:groupmode="layer"
     inkscape:label="Layer 1"
     transform="translate(-0.33350186,-178.10814)">
    <path
       inkscape:connector-curvature="0"
       id="path4545"
       d=""
       style="fill:#000000;stroke-width:0.26458335" />
    <g
       id="g4619"
       transform="matrix(0.0755759,0,0,0.0755759,-1.7870155,176.78237)">
      <g
         id="g4670"
         transform="matrix(1.3496811,0,0,1.3496811,-12.711433,-64.817197)">
        <path
           transform="matrix(3.5008957,0,0,3.5008957,28.058116,59.552979)"
           id="path4604"
           d="M 9.9960938,1.3066406 A 3.423014,3.423014 0 0 0 6.5722656,4.7304688 3.423014,3.423014 0 0 0 7.4941406,7.0644531 C 7.4820636,7.137716 7.2797265,7.4005566 7.0273438,7.671875 5.7984809,8.9929356 4.3674767,11.890823 3.875,14.050781 c -0.2286352,1.002774 -0.3249545,4.283405 -0.1582031,5.423828 0.3780367,2.585404 1.7080797,5.142389 3.7304687,7.171875 1.89603,1.902686 4.3132754,3.164496 7.0175784,3.664063 1.114923,0.205961 4.737128,0.149746 5.777344,-0.08984 1.939849,-0.446801 5.072283,-1.917387 6.060546,-2.84375 0.366782,-0.343807 0.504076,-0.27144 1.279297,0.667969 l 0.59375,0.71875 0.03125,-6.242188 c 0.03246,-6.553269 -0.02929,-7.903907 -0.410156,-8.921875 -0.278835,-0.745252 -1.139712,-1.97649 -1.742187,-2.492187 -0.976921,-0.836206 -2.274104,-1.2575849 -3.888672,-1.2617189 -1.725585,-0.00442 -3.165366,0.5158189 -4.388672,1.5859379 -0.566797,0.49582 -1.33121,1.514147 -1.529297,2.035156 -0.184754,0.48594 0.07662,0.890253 2.167969,3.345703 l 1.222656,1.435547 0.169922,-0.673828 c 0.322974,-1.283022 1.021092,-1.94336 2.052734,-1.94336 0.783551,0 1.431388,0.395544 1.732422,1.058594 0.186222,0.410166 0.204885,0.741058 0.207031,3.59375 l 0.0039,3.142578 L 24.625,24.4375 c 0.8892,1.095166 1.032937,1.355404 0.939453,1.712891 -0.124662,0.47671 -2.503266,1.813207 -4.234375,2.378906 C 18.325585,29.51112 14.896559,29.3784 12.056641,28.171875 8.4721253,26.649012 5.9017059,23.523037 5.1152344,19.732422 4.8637284,18.520218 4.8430402,16.310571 5.0722656,14.996094 5.4411236,12.880908 6.5070296,10.393654 7.640625,9 8.1611858,8.360017 8.4152268,8.119103 8.8535156,7.9882812 A 3.3499202,3.4374999 0 0 0 10.001953,8.2011719 3.3499202,3.4374999 0 0 0 12.320312,7.2382812 3.423014,3.423014 0 0 0 13.417969,4.7304688 3.423014,3.423014 0 0 0 9.9960938,1.3066406 Z m 0.021484,1.28125 A 2.0971889,2.0971889 0 0 1 12.115234,4.6855469 2.0971889,2.0971889 0 0 1 10.017578,6.7832031 2.0971889,2.0971889 0 0 1 7.9199219,4.6855469 2.0971889,2.0971889 0 0 1 10.017578,2.5878906 Z"
           style="opacity:1;fill:#3d91ef;fill-opacity:1;stroke:none;stroke-width:1.07965565;stroke-linejoin:round;stroke-miterlimit:4;stroke-dasharray:none;stroke-dashoffset:81.48999786;stroke-opacity:1;paint-order:stroke fill markers"
           inkscape:connector-curvature="0" />
        <path
           id="path4606"
           transform="matrix(3.5008957,0,0,3.5008957,28.058116,59.552979)"
           d="m 20.199219,7.7050781 c -2.576711,0.076568 -5.241786,0.8003088 -8.476563,2.6894529 -0.03743,0 -0.402094,-0.390505 -0.810547,-0.8671872 -0.408453,-0.476683 -0.751024,-0.8524169 -0.761718,-0.8359376 -0.0795,0.1224898 0.165248,13.9806068 0.255859,14.4902348 0.17793,1.000742 0.611717,1.738774 1.634766,2.78125 0.692575,0.705727 1.095789,1.020378 1.61914,1.263671 1.212136,0.563494 3.448046,0.689583 4.765625,0.267579 0.636213,-0.203772 1.663425,-0.863019 2.378907,-1.527344 0.633075,-0.587812 1.629919,-2.047263 1.546874,-2.263672 -0.108682,-0.283222 -3.5369,-4.455124 -3.61914,-4.404297 -0.04581,0.02831 -0.114312,0.285566 -0.152344,0.572266 -0.08696,0.65553 -0.462916,1.403284 -0.847656,1.683594 -0.187512,0.136614 -0.525482,0.232763 -0.925781,0.261718 -0.757315,0.05478 -1.375006,-0.210152 -1.765625,-0.757812 -0.249196,-0.349381 -0.252411,-0.389946 -0.277344,-3.617188 l -0.02539,-3.263672 -0.74414,-0.947265 C 13.584974,12.709668 13.165574,12.118672 13.0625,11.916016 12.877865,11.553 12.879843,11.543351 13.130859,11.351562 c 0.484239,-0.369978 2.416517,-1.277313 3.384766,-1.5898432 4.092008,-1.3208114 8.635075,-0.6380927 11.876953,1.7851562 1.966066,1.469601 3.533746,3.732581 4.154297,5.996094 0.311211,1.135167 0.453302,3.169055 0.328125,4.701172 -0.218448,2.673711 -0.948422,4.565431 -2.666016,6.90625 -0.707677,0.964455 -1.093758,1.220957 -2.029296,1.328125 a 3.423014,3.423014 0 0 0 -0.902344,-0.125 3.423014,3.423014 0 0 0 -3.423828,3.423828 3.423014,3.423014 0 0 0 2.824218,3.365234 c 0.02628,0.0058 0.0518,0.01637 0.07813,0.02148 0.04805,0.0093 0.09795,0.0052 0.146485,0.01172 a 3.423014,3.423014 0 0 0 0.09375,0.0098 c 0.154302,0.01517 0.308576,0.0188 0.464844,0.0078 a 3.423014,3.423014 0 0 0 0.390624,-0.04297 3.423014,3.423014 0 0 0 2.847657,-3.373047 3.423014,3.423014 0 0 0 -0.623047,-1.962891 c 0.01414,-0.08357 0.405143,-0.665394 0.892578,-1.324219 1.144624,-1.547093 1.805564,-2.661541 2.337891,-3.935546 C 35.48893,21.331853 34.488098,15.476583 30.771484,11.734375 28.97142,9.9219146 26.920437,8.7624248 24.244141,8.0429688 23.246647,7.8686893 22.274649,7.7481056 21.298828,7.7109375 20.932895,7.6969995 20.56732,7.6941399 20.199219,7.7050781 Z m 7.099609,23.9296879 a 2.0971889,2.0971889 0 0 1 2.097656,2.097656 2.0971889,2.0971889 0 0 1 -2.097656,2.097656 2.0971889,2.0971889 0 0 1 -2.097656,-2.097656 2.0971889,2.0971889 0 0 1 2.097656,-2.097656 z"
           style="opacity:1;fill:#ffffff;fill-opacity:1;stroke:none;stroke-width:1.07965565;stroke-linejoin:round;stroke-miterlimit:4;stroke-dasharray:none;stroke-dashoffset:81.48999786;stroke-opacity:1;paint-order:stroke fill markers"
           inkscape:connector-curvature="0" />
      </g>
    </g>
  </g>
</svg>
